<svg width="743" height="747" fill="none" xmlns="http://www.w3.org/2000/svg"><path d="M738 373c0 202.688-164.312 367-367 367C168.311 740 4 575.688 4 373 4 170.311 168.311 6 371 6c202.688 0 367 164.311 367 367z" fill="#fff"/><path d="M175 249c0-12.15 9.85-22 22-22h356c12.15 0 22 9.85 22 22v242c0 12.15-9.85 22-22 22H197c-12.15 0-22-9.85-22-22V249z" fill="#434343"/><path fill-rule="evenodd" clip-rule="evenodd" d="M186.532 240.683c2.936-4.677 9.109-6.088 13.786-3.152l174.683 109.662 174.683-109.662c4.678-2.936 10.85-1.525 13.787 3.152 2.936 4.678 1.525 10.85-3.153 13.787l-180 113a10 10 0 01-10.634 0l-180-113c-4.677-2.937-6.089-9.109-3.152-13.787z" fill="#fff"/></svg>